<?xml version="1.0" encoding="utf-8"?>
<!-- Generator: Adobe Illustrator 16.0.0, SVG Export Plug-In . SVG Version: 6.00 Build 0)  -->
<!DOCTYPE svg PUBLIC "-//W3C//DTD SVG 1.1//EN" "http://www.w3.org/Graphics/SVG/1.1/DTD/svg11.dtd">
<svg version="1.1" xmlns="http://www.w3.org/2000/svg" xmlns:xlink="http://www.w3.org/1999/xlink" x="0px" y="0px"
	 width="373.813px" height="373.813px" viewBox="0 0 373.813 373.813" enable-background="new 0 0 373.813 373.813"
	 xml:space="preserve">
<g id="Layer_3" display="none">
	<g display="inline" opacity="0.3">
		<text transform="matrix(1 0 0 1 73.8765 456.6074)" fill="#2B3990" font-family="'CenturyGothic-Bold'" font-size="16">© Sahil Dev | Designer Banda</text>
		<g>
			<path fill="#2B3990" d="M545.024,450.972h-1.237c0-0.001,0-0.001-0.001-0.002h-7.969c0.013,0,0.024,0.001,0.038,0.002h-0.075
				c0.013-0.001,0.024-0.002,0.037-0.002h-5.839h-2.129h-5.84c0.014,0,0.025,0.001,0.038,0.002h-0.076
				c0.013-0.001,0.024-0.002,0.038-0.002h-7.969c0,0,0,0.001,0,0.002h-1.238v4.603h0.001l0,0c0,5.085,4.122,9.206,9.206,9.206
				c2.75,0,5.226-1.207,6.903-3.124c1.677,1.917,4.154,3.124,6.904,3.124c5.085,0,9.207-4.121,9.207-9.206l0,0l0,0V450.972z
				 M522.01,460.177c-2.542,0-4.604-2.061-4.604-4.603l0,0h9.205l0,0C526.611,458.116,524.551,460.177,522.01,460.177z
				 M540.42,455.574c0,2.542-2.061,4.603-4.603,4.603s-4.603-2.061-4.603-4.603l0,0H540.42L540.42,455.574z"/>
			<path fill="#2B3990" d="M556.563,441.766h-11.705c-1.117-7.808-7.828-13.81-15.944-13.81s-14.827,6.002-15.944,13.81h0.008
				h-0.008c-0.106,0.752-0.165,1.52-0.165,2.301c0,0.662,0.044,1.313,0.121,1.954c-0.077-0.641-0.122-1.292-0.122-1.954v2.302h0.166
				l0,0h4.935h22.02h4.933h0.002h11.705c1.145,0,2.097-0.833,2.271-1.933v-0.738C558.659,442.6,557.707,441.766,556.563,441.766z
				 M517.903,441.766c1.063-5.107,5.588-8.945,11.01-8.945c5.423,0,9.948,3.838,11.01,8.945H517.903z"/>
		</g>
	</g>
</g>
<g id="Layer_6">
	<g>
		<linearGradient id="SVGID_1_" gradientUnits="userSpaceOnUse" x1="31.5513" y1="342.2617" x2="342.2622" y2="31.5508">
			<stop  offset="0" style="stop-color:#1C75BC"/>
			<stop  offset="1" style="stop-color:#262262"/>
		</linearGradient>
		<path fill="url(#SVGID_1_)" d="M266.405,0c59.074,0,107.407,48.333,107.407,107.407v158.999
			c0,59.074-48.333,107.407-107.407,107.407H107.407C48.333,373.813,0,325.479,0,266.405V107.407C0,48.333,48.333,0,107.407,0
			H266.405z"/>
		<path fill="#FFFFFF" d="M223.009,183.931c0.392-0.751,0.621-1.617,0.621-2.545v-16.515c0-20.286,16.435-36.718,36.718-36.718
			c8.108,0,14.687-6.577,14.687-14.687V84.092c0-8.111-6.578-14.687-14.687-14.687H113.477c-8.11,0-14.687,6.575-14.687,14.687
			v29.374c0,8.11,6.577,14.687,14.687,14.687c20.286,0,36.717,16.433,36.717,36.718v16.515c0,0.961,0.246,1.86,0.669,2.625
			l6.381,16.141c0.196,0.44,0.293,0.928,0.293,1.435c0,2.024-1.647,3.673-3.671,3.673c-2.024,0-3.672,1.647-3.672,3.672v22.03
			c0,8.111-6.577,14.687-14.687,14.687h-7.343c-16.22,0-29.374,13.154-29.374,29.374v14.688c0,8.112,6.577,14.687,14.687,14.687
			h146.871c8.108,0,14.687-6.574,14.687-14.687v-14.688c0-16.22-13.153-29.374-29.372-29.374h-7.344
			c-8.112,0-14.688-6.575-14.688-14.687v-22.03c0-2.024-1.646-3.672-3.671-3.672s-3.672-1.648-3.672-3.673
			c0-0.522,0.114-1.027,0.31-1.468L223.009,183.931z"/>
	</g>
</g>
<g id="Layer_7" display="none">
	<g display="inline">
		<g>
			<linearGradient id="SVGID_2_" gradientUnits="userSpaceOnUse" x1="-81.0229" y1="237.8037" x2="20.7729" y2="136.0078">
				<stop  offset="0" style="stop-color:#1C75BC"/>
				<stop  offset="1" style="stop-color:#262262"/>
			</linearGradient>
			<path fill="url(#SVGID_2_)" d="M-4.079,125.671c19.353,0,35.189,15.835,35.189,35.189v52.092
				c0,19.354-15.836,35.188-35.189,35.188H-56.17c-19.354,0-35.189-15.834-35.189-35.188V160.86
				c0-19.354,15.835-35.189,35.189-35.189H-4.079z"/>
			<path fill="#FFFFFF" d="M-18.297,185.932c0.129-0.246,0.205-0.531,0.205-0.835v-5.41c0-6.646,5.383-12.03,12.03-12.03
				c2.656,0,4.809-2.155,4.809-4.811v-9.624c0-2.658-2.153-4.813-4.809-4.813h-48.12c-2.656,0-4.813,2.155-4.813,4.813v9.624
				c0,2.656,2.157,4.811,4.813,4.811c6.646,0,12.03,5.383,12.03,12.03v5.41c0,0.315,0.081,0.61,0.218,0.862l2.093,5.288
				c0.064,0.145,0.094,0.304,0.094,0.471c0,0.663-0.539,1.203-1.202,1.203c-0.665,0-1.203,0.539-1.203,1.201v7.22
				c0,2.656-2.155,4.811-4.813,4.811h-2.405c-5.313,0-9.625,4.31-9.625,9.624v4.813c0,2.658,2.157,4.811,4.813,4.811h48.12
				c2.656,0,4.809-2.152,4.809-4.811v-4.813c0-5.314-4.308-9.624-9.622-9.624h-2.407c-2.658,0-4.811-2.154-4.811-4.811v-7.22
				c0-0.662-0.541-1.201-1.205-1.201c-0.661,0-1.201-0.54-1.201-1.203c0-0.172,0.037-0.338,0.101-0.482L-18.297,185.932z"/>
		</g>
		
			<text transform="matrix(1 0 0 1 43.9995 213.0332)" fill="#2B3990" font-family="'Linotte-Bold'" font-size="78.2859" letter-spacing="7">INTERACT</text>
	</g>
</g>
<g id="Layer_4" display="none">
	<g display="inline">
		<g>
			<path fill="#1C75BC" d="M132.909,144.441c0,6.627-5.372,12-12,12H54.914c-6.628,0-12-5.373-12-12V78.445c0-6.627,5.372-12,12-12
				h65.995c6.628,0,12,5.373,12,12V144.441z"/>
			<path fill="#2B3990" d="M330.901,144.441c0,6.627-5.373,12-12,12h-65.996c-6.627,0-12-5.373-12-12V78.445c0-6.627,5.373-12,12-12
				h65.996c6.627,0,12,5.373,12,12V144.441z"/>
		</g>
		
			<text transform="matrix(1 0 0 1 25.1362 197.6875)" fill="#1C75BC" font-family="'Linotte-Bold'" font-size="30" letter-spacing="1">#1B75BB</text>
		
			<text transform="matrix(1 0 0 1 220.127 197.6875)" fill="#2B3990" font-family="'Linotte-Bold'" font-size="30" letter-spacing="1">#2A388F</text>
		<text transform="matrix(1 0 0 1 -41.4819 298.9326)"><tspan x="0" y="0" fill="#262262" font-family="'Linotte-Bold'" font-size="35">Typeface:</tspan><tspan x="158.652" y="0" font-family="'Linotte-Bold'" font-size="35"> </tspan><tspan x="167.857" y="0" fill="#1C75BC" font-family="'Linotte-Bold'" font-size="35">Linotte-Bold 80pt</tspan></text>
	</g>
</g>
</svg>
